<mxfile host="" modified="2021-01-20T10:46:40.554Z" agent="5.0 (Macintosh; Intel Mac OS X 10_16_0) AppleWebKit/537.36 (KHTML, like Gecko) Chrome/81.0.4044.113 Safari/537.36" etag="RQJ0qCRLqxpPqzs95xia" version="13.7.9" type="embed" pages="2"><diagram id="12upbwH2g4YlAArgbUt6" name="Disp. da Vaga"><mxGraphModel dx="765" dy="760" grid="1" gridSize="10" guides="1" tooltips="1" connect="1" arrows="1" fold="1" page="1" pageScale="1" pageWidth="1169" pageHeight="827" math="0" shadow="0"><root><mxCell id="0"/><mxCell id="1" parent="0"/><mxCell id="UCyTU8Q8uFQc-D2HceGJ-6" value="Diagrama de Estados - Disponibilidade da Vaga" style="rounded=1;whiteSpace=wrap;html=1;fontStyle=1;fontColor=#3333FF;align=center;" parent="1" vertex="1"><mxGeometry width="360" height="40" as="geometry"/></mxCell><mxCell id="UCyTU8Q8uFQc-D2HceGJ-20" value="" style="ellipse;html=1;shape=endState;fillColor=#000000;" parent="1" vertex="1"><mxGeometry x="160" y="440" width="40" height="40" as="geometry"/></mxCell><mxCell id="UCyTU8Q8uFQc-D2HceGJ-21" value="abrirVaga()" style="edgeStyle=orthogonalEdgeStyle;rounded=0;orthogonalLoop=1;jettySize=auto;html=1;exitX=0.5;exitY=1;exitDx=0;exitDy=0;entryX=0.5;entryY=0;entryDx=0;entryDy=0;" parent="1" source="UCyTU8Q8uFQc-D2HceGJ-23" target="UCyTU8Q8uFQc-D2HceGJ-25" edge="1"><mxGeometry relative="1" as="geometry"><mxPoint x="200" y="180" as="sourcePoint"/><mxPoint x="370" y="180" as="targetPoint"/><Array as="points"><mxPoint x="180" y="130"/><mxPoint x="180" y="130"/></Array></mxGeometry></mxCell><mxCell id="UCyTU8Q8uFQc-D2HceGJ-23" value="" style="ellipse;whiteSpace=wrap;html=1;aspect=fixed;strokeColor=#000000;fillColor=#000000;" parent="1" vertex="1"><mxGeometry x="160" y="80" width="40" height="40" as="geometry"/></mxCell><mxCell id="UCyTU8Q8uFQc-D2HceGJ-25" value="Disponível" style="rounded=1;whiteSpace=wrap;html=1;" parent="1" vertex="1"><mxGeometry x="120" y="160" width="120" height="40" as="geometry"/></mxCell><mxCell id="UCyTU8Q8uFQc-D2HceGJ-26" value="aceitarVaga()" style="edgeStyle=orthogonalEdgeStyle;rounded=0;orthogonalLoop=1;jettySize=auto;html=1;exitX=0.5;exitY=1;exitDx=0;exitDy=0;" parent="1" source="UCyTU8Q8uFQc-D2HceGJ-33" target="UCyTU8Q8uFQc-D2HceGJ-20" edge="1"><mxGeometry y="40" relative="1" as="geometry"><mxPoint as="offset"/></mxGeometry></mxCell><mxCell id="UCyTU8Q8uFQc-D2HceGJ-34" value="" style="edgeStyle=orthogonalEdgeStyle;rounded=0;orthogonalLoop=1;jettySize=auto;html=1;fontColor=#000000;" parent="1" source="UCyTU8Q8uFQc-D2HceGJ-27" target="UCyTU8Q8uFQc-D2HceGJ-33" edge="1"><mxGeometry relative="1" as="geometry"/></mxCell><mxCell id="UCyTU8Q8uFQc-D2HceGJ-27" value="Não Disponível" style="rounded=1;whiteSpace=wrap;html=1;" parent="1" vertex="1"><mxGeometry x="120" y="280" width="120" height="40" as="geometry"/></mxCell><mxCell id="UCyTU8Q8uFQc-D2HceGJ-29" value="atribuirVaga()" style="edgeStyle=orthogonalEdgeStyle;rounded=0;orthogonalLoop=1;jettySize=auto;html=1;exitX=0.5;exitY=1;exitDx=0;exitDy=0;entryX=0.5;entryY=0;entryDx=0;entryDy=0;" parent="1" source="UCyTU8Q8uFQc-D2HceGJ-25" target="UCyTU8Q8uFQc-D2HceGJ-27" edge="1"><mxGeometry relative="1" as="geometry"><mxPoint x="200" y="260" as="sourcePoint"/><mxPoint x="350" y="220" as="targetPoint"/><Array as="points"/></mxGeometry></mxCell><mxCell id="UCyTU8Q8uFQc-D2HceGJ-31" value="libertarVaga()" style="edgeStyle=orthogonalEdgeStyle;rounded=0;orthogonalLoop=1;jettySize=auto;html=1;exitX=0;exitY=0.5;exitDx=0;exitDy=0;entryX=0;entryY=0.5;entryDx=0;entryDy=0;" parent="1" source="UCyTU8Q8uFQc-D2HceGJ-33" target="UCyTU8Q8uFQc-D2HceGJ-25" edge="1"><mxGeometry y="20" relative="1" as="geometry"><mxPoint x="160" y="100" as="sourcePoint"/><Array as="points"><mxPoint x="60" y="380"/><mxPoint x="60" y="180"/></Array><mxPoint as="offset"/></mxGeometry></mxCell><mxCell id="UCyTU8Q8uFQc-D2HceGJ-33" value="" style="rhombus;whiteSpace=wrap;html=1;" parent="1" vertex="1"><mxGeometry x="160" y="360" width="40" height="40" as="geometry"/></mxCell></root></mxGraphModel></diagram><diagram id="cU6lb8SBhvsujqwf_Nzs" name="Disp. Diária do Médico"><mxGraphModel dx="765" dy="760" grid="1" gridSize="10" guides="1" tooltips="1" connect="1" arrows="1" fold="1" page="1" pageScale="1" pageWidth="1169" pageHeight="827" math="0" shadow="0"><root><mxCell id="1cX327oz-DkonUQxXO5e-0"/><mxCell id="1cX327oz-DkonUQxXO5e-1" parent="1cX327oz-DkonUQxXO5e-0"/><mxCell id="1CqfSS3KH_TcC1zX7hcj-0" value="Diagrama de Estados - Disponibilidade Diária do Médico" style="rounded=1;whiteSpace=wrap;html=1;fontStyle=1;fontColor=#3333FF;align=center;" parent="1cX327oz-DkonUQxXO5e-1" vertex="1"><mxGeometry width="360" height="40" as="geometry"/></mxCell><mxCell id="1CqfSS3KH_TcC1zX7hcj-1" value="" style="ellipse;html=1;shape=endState;fillColor=#000000;" parent="1cX327oz-DkonUQxXO5e-1" vertex="1"><mxGeometry x="160" y="440" width="40" height="40" as="geometry"/></mxCell><mxCell id="1CqfSS3KH_TcC1zX7hcj-2" value="Calendário.abrirVagas()" style="edgeStyle=orthogonalEdgeStyle;rounded=0;orthogonalLoop=1;jettySize=auto;html=1;exitX=0.5;exitY=1;exitDx=0;exitDy=0;entryX=0.5;entryY=0;entryDx=0;entryDy=0;" parent="1cX327oz-DkonUQxXO5e-1" source="1CqfSS3KH_TcC1zX7hcj-3" target="1CqfSS3KH_TcC1zX7hcj-4" edge="1"><mxGeometry relative="1" as="geometry"><mxPoint x="200" y="180" as="sourcePoint"/><mxPoint x="370" y="180" as="targetPoint"/><Array as="points"><mxPoint x="180" y="130"/><mxPoint x="180" y="130"/></Array></mxGeometry></mxCell><mxCell id="1CqfSS3KH_TcC1zX7hcj-3" value="" style="ellipse;whiteSpace=wrap;html=1;aspect=fixed;strokeColor=#000000;fillColor=#000000;" parent="1cX327oz-DkonUQxXO5e-1" vertex="1"><mxGeometry x="160" y="80" width="40" height="40" as="geometry"/></mxCell><mxCell id="VTpKFzGenfI8_PgnBF_q-0" value="[todas as vagas atribuídas]" style="edgeStyle=orthogonalEdgeStyle;rounded=0;orthogonalLoop=1;jettySize=auto;html=1;fontColor=#000000;entryX=0.5;entryY=0;entryDx=0;entryDy=0;" parent="1cX327oz-DkonUQxXO5e-1" source="1CqfSS3KH_TcC1zX7hcj-4" target="1CqfSS3KH_TcC1zX7hcj-7" edge="1"><mxGeometry relative="1" as="geometry"><mxPoint x="460" y="480" as="targetPoint"/></mxGeometry></mxCell><mxCell id="ar1yGEdnh1De6nQsX3Qd-0" style="edgeStyle=orthogonalEdgeStyle;rounded=0;orthogonalLoop=1;jettySize=auto;html=1;exitX=1;exitY=0.5;exitDx=0;exitDy=0;entryX=1;entryY=0.5;entryDx=0;entryDy=0;" edge="1" parent="1cX327oz-DkonUQxXO5e-1" source="1CqfSS3KH_TcC1zX7hcj-4" target="1CqfSS3KH_TcC1zX7hcj-1"><mxGeometry relative="1" as="geometry"/></mxCell><mxCell id="1CqfSS3KH_TcC1zX7hcj-4" value="Disponível" style="rounded=1;whiteSpace=wrap;html=1;" parent="1cX327oz-DkonUQxXO5e-1" vertex="1"><mxGeometry x="120" y="160" width="120" height="40" as="geometry"/></mxCell><mxCell id="1CqfSS3KH_TcC1zX7hcj-5" value="[fim do dia]" style="edgeStyle=orthogonalEdgeStyle;rounded=0;orthogonalLoop=1;jettySize=auto;html=1;exitX=0.5;exitY=1;exitDx=0;exitDy=0;" parent="1cX327oz-DkonUQxXO5e-1" source="1CqfSS3KH_TcC1zX7hcj-10" target="1CqfSS3KH_TcC1zX7hcj-1" edge="1"><mxGeometry relative="1" as="geometry"/></mxCell><mxCell id="1CqfSS3KH_TcC1zX7hcj-6" value="" style="edgeStyle=orthogonalEdgeStyle;rounded=0;orthogonalLoop=1;jettySize=auto;html=1;fontColor=#000000;" parent="1cX327oz-DkonUQxXO5e-1" source="1CqfSS3KH_TcC1zX7hcj-7" target="1CqfSS3KH_TcC1zX7hcj-10" edge="1"><mxGeometry relative="1" as="geometry"/></mxCell><mxCell id="1CqfSS3KH_TcC1zX7hcj-7" value="Não Disponível" style="rounded=1;whiteSpace=wrap;html=1;" parent="1cX327oz-DkonUQxXO5e-1" vertex="1"><mxGeometry x="120" y="280" width="120" height="40" as="geometry"/></mxCell><mxCell id="1CqfSS3KH_TcC1zX7hcj-10" value="" style="rhombus;whiteSpace=wrap;html=1;" parent="1cX327oz-DkonUQxXO5e-1" vertex="1"><mxGeometry x="160" y="360" width="40" height="40" as="geometry"/></mxCell><mxCell id="VTpKFzGenfI8_PgnBF_q-1" value="[pelo menos uma vaga atribuída]" style="edgeStyle=orthogonalEdgeStyle;rounded=0;orthogonalLoop=1;jettySize=auto;html=1;fontColor=#000000;entryX=0;entryY=0.5;entryDx=0;entryDy=0;exitX=0;exitY=0.5;exitDx=0;exitDy=0;horizontal=0;align=center;" parent="1cX327oz-DkonUQxXO5e-1" source="1CqfSS3KH_TcC1zX7hcj-10" target="1CqfSS3KH_TcC1zX7hcj-4" edge="1"><mxGeometry y="10" relative="1" as="geometry"><mxPoint x="190" y="210" as="sourcePoint"/><mxPoint x="190" y="290" as="targetPoint"/><Array as="points"><mxPoint x="60" y="380"/><mxPoint x="60" y="180"/></Array><mxPoint as="offset"/></mxGeometry></mxCell><mxCell id="ar1yGEdnh1De6nQsX3Qd-1" value="[fim do dia]" style="text;html=1;align=center;verticalAlign=middle;resizable=0;points=[];autosize=1;" vertex="1" parent="1cX327oz-DkonUQxXO5e-1"><mxGeometry x="230" y="330" width="70" height="20" as="geometry"/></mxCell></root></mxGraphModel></diagram></mxfile>